<svg width="29" height="20" viewBox="0 0 29 20" fill="none" xmlns="http://www.w3.org/2000/svg">
<path d="M28.1387 3.1318C27.9754 2.52641 27.6569 1.97451 27.2148 1.53106C26.7727 1.08762 26.2225 0.768104 25.619 0.604351C23.4095 0 14.5182 0 14.5182 0C14.5182 0 5.62646 0.0183401 3.41737 0.622691C2.8139 0.786471 2.26374 1.106 1.82168 1.54944C1.37962 1.99289 1.06109 2.54477 0.897823 3.15014C0.229542 7.08802 -0.0297253 13.088 0.916106 16.8682C1.07937 17.4736 1.3979 18.0255 1.83996 18.4689C2.28202 18.9123 2.83218 19.2319 3.43565 19.3956C5.64491 20 14.5365 20 14.5365 20C14.5365 20 23.428 20 25.6373 19.3956C26.2407 19.2319 26.7909 18.9123 27.233 18.4689C27.675 18.0255 27.9935 17.4736 28.1568 16.8682C28.8615 12.9249 29.0788 6.92855 28.1385 3.13197" fill="#FF0000"/>
<path d="M11.7205 14.1015L19.1175 9.87114L11.7205 5.64062V14.1015Z" fill="white"/>
</svg>
